:SAMPLES-PER-SECOND 30
:FULLY-SPECIFIED
:DEGREES
16
root  -62.8209 38.5611 1.50754 -31.8161 83.2251 -28.174
RightUpLeg  14.4376 1.28551 6.83352
RightLeg  12.0638 12.7418 0.0416907
RightFoot  -15.1544 -0.0859259 -5.13149
RightToes  1.74622e-010 -3.18055e-015 8.94531e-016
Spine  -5.60153 5.09807 13.3657
Spine1  17.5594 7.75978 -9.01105
HEad  -18.8314 -6.04811 6.49432
LeftShoulder1  0 -2.69403e-036 -1.28585e-037
LeftArm  -2.48816 63.564 -58.5587
LeftForeArm  3.66652 -2.34629 -5.10291
LeftHand  1.08681 9.08049 -10.7794
RightShoulder  -2.48481e-017 0 -8.08114e-019
RightArm  16.2974 -7.59408 82.2357
RightForeArm  -37.5311 35.1193 -31.1433
RightHand  1.73711 -12.7632 -8.51448
LeftUpLeg  -23.8529 -0.919842 3.43792
LeftLeg  -4.41692 -2.26276 -0.0561724
LeftFoot  1.01107 0.828215 -6.52058
LeftToes  4.94765e-010 2.02697e-011 4.00889e-011
17
root  -60.9565 38.1908 1.39396 -30.0842 82.7707 -27.146
RightUpLeg  16.2703 1.85874 6.43568
RightLeg  13.0899 13.0212 0.0607622
RightFoot  -15.5957 -0.0745589 -3.69376
RightToes  1.74622e-010 -3.18055e-015 8.94531e-016
Spine  -6.02269 5.63169 13.5554
Spine1  17.8561 8.44183 -9.43213
HEad  -19.6963 -6.18899 6.74818
LeftShoulder1  0 -2.69403e-036 -1.28585e-037
LeftArm  -0.902739 64.9853 -53.9843
LeftForeArm  4.74385 -1.56144 -4.75109
LeftHand  1.09856 9.56534 -11.2448
RightShoulder  -2.48481e-017 0 -8.08114e-019
RightArm  14.7796 -6.53808 81.8329
RightForeArm  -37.3343 35.7906 -31.7309
RightHand  1.81909 -12.9396 -9.37424
LeftUpLeg  -26.1508 -1.1423 3.43788
LeftLeg  -3.60503 0.413179 0.213422
LeftFoot  -1.01332 0.632157 -5.8491
LeftToes  4.94765e-010 2.02697e-011 4.00889e-011
18
root  -58.9641 37.7487 1.26382 -24.8111 82.8032 -22.4834
RightUpLeg  17.6581 2.91647 5.27957
RightLeg  15.5821 12.6602 0.534427
RightFoot  -15.7871 -0.0239302 -1.24995
RightToes  1.74622e-010 -3.18055e-015 8.94531e-016
Spine  -6.60199 6.09993 12.4892
Spine1  18.1568 8.9014 -9.34599
HEad  -20.2518 -6.46509 7.11488
LeftShoulder1  0 -2.69403e-036 -1.28585e-037
LeftArm  -0.936237 65.5075 -51.284
LeftForeArm  3.96438 -1.27073 -4.17293
LeftHand  1.15439 10.3618 -10.2633
RightShoulder  -2.48481e-017 0 -8.08114e-019
RightArm  12.8081 -7.15271 81.8267
RightForeArm  -37.0842 36.4035 -32.2841
RightHand  1.83295 -12.9303 -9.63836
LeftUpLeg  -28.2839 -1.64406 2.73429
LeftLeg  1.30419 2.68505 1.18349
LeftFoot  0.347734 0.517849 -4.28608
LeftToes  4.94765e-010 2.02697e-011 4.00889e-011
19
root  -56.921 37.2896 1.10976 -12.7876 83.0372 -10.6963
RightUpLeg  18.2235 2.33439 1.96334
RightLeg  20.225 13.7938 1.96999
RightFoot  -14.6778 0.0365829 2.3554
RightToes  1.74622e-010 -3.18055e-015 8.94531e-016
Spine  -6.61405 6.3679 10.3147
Spine1  18.1399 9.22195 -9.36745
HEad  -20.5018 -6.80088 7.87824
LeftShoulder1  0 -2.69403e-036 -1.28585e-037
LeftArm  -1.76706 65.4187 -50.4386
LeftForeArm  1.33975 -1.12809 -3.79322
LeftHand  1.21592 10.742 -8.77225
RightShoulder  -2.48481e-017 0 -8.08114e-019
RightArm  10.8888 -9.1731 82.3865
RightForeArm  -36.5666 36.9369 -32.7971
RightHand  1.77463 -12.8137 -9.00882
LeftUpLeg  -29.782 -3.72035 1.96284
LeftLeg  7.83173 5.09981 2.6456
LeftFoot  5.91523 0.397506 -2.23197
LeftToes  4.94765e-010 2.02697e-011 4.00889e-011
